# xmcd
#
# Track frame offsets:
#	150
#	21245
#	38393
#	60316
#	77591
#	93225
#	111769
#	134641
#	150355
#	173971
#	187853
#	199683
#	217222
#	228200
#	240226
#	253126
#	264836
#
# Disc length: 3724
#
# Revision: 3
# Processed by: cddbd v1.5.1PL0 Copyright (c) Steve Scherf et al.
# Submitted via: VisiTrax 2.9.5.180 - For more info visit www.synapsa.com
# Normalized: r2:DSETVAR1
#
DISCID=d00e8a11
DTITLE=Various Artist - CDXMAS Volume 1017 A December 2003
DYEAR=2003
DGENRE=Country Christmas
TTITLE0=Kenny Chesney - All I want for Christmas is a real good tan
TTITLE1=Vince Vance and the Valiants - All I want for Christmas is you
TTITLE2=Sara Evans - O come all ye faithful
TTITLE3=Martina McBride - O holy night
TTITLE4=Martina McBride - Silent night
TTITLE5=Tracy Byrd - Merry Christmas from Texas y' all
TTITLE6=John Michael Montgomery - Have yourself a merry little Christmas
TTITLE7=Randy Travis - White Christmas makes me blue
TTITLE8=Clay Walker - Please come home for Christmas
TTITLE9=Buck Howdy - Cow pies for Christmas
TTITLE10=The Geezinslaw - Lighten up it's Christmas
TTITLE11=Leland Martin - Flags on the Christmas tree
TTITLE12=Keith Norris - Merry Christmas y'all
TTITLE13=Dan Tyler - Happy Christmas
TTITLE14=Eric Heatherly - The coolest Christmas
TTITLE15=Tresa Street - Christmas of love
TTITLE16=David Young - An old fashioned Christmas
EXTD=
EXTT0=
EXTT1=
EXTT2=
EXTT3=
EXTT4=
EXTT5=
EXTT6=
EXTT7=
EXTT8=
EXTT9=
EXTT10=
EXTT11=
EXTT12=
EXTT13=
EXTT14=
EXTT15=
EXTT16=
PLAYORDER=
